<svg width="38" height="48" viewBox="0 0 38 48" fill="none" xmlns="http://www.w3.org/2000/svg">
<path d="M17.293 0H25.1417V36.33C21.1154 37.095 18.1592 37.4006 14.9489 37.4006C5.36725 37.4003 0.372623 33.069 0.372623 24.7613C0.372623 16.7595 5.67325 11.5613 13.8782 11.5613C15.1525 11.5613 16.1207 11.6633 17.293 11.9689V0ZM17.293 18.2869C16.3757 17.9813 15.6111 17.8796 14.6429 17.8796C10.6679 17.8796 8.374 20.3258 8.374 24.6068C8.374 28.7861 10.5659 31.0793 14.5922 31.0793C15.4581 31.0793 16.1717 31.0283 17.293 30.876V18.2869Z" fill="#FEFEFE"/>
<path d="M37.627 12.1204V30.315C37.627 36.5839 37.168 39.5906 35.7921 42.1897C34.5179 44.6876 32.836 46.2671 29.3706 48L22.0825 44.5346C25.5482 42.9034 27.2297 41.4773 28.3 39.2846C29.4212 37.0425 29.7786 34.4434 29.7786 27.6139V12.1204H37.627ZM29.7782 0.041626H37.627V8.09438H29.7782V0.041626Z" fill="#FEFEFE"/>
</svg>
