<svg width="32" height="32" viewBox="0 0 32 32" fill="none" xmlns="http://www.w3.org/2000/svg">
<path d="M26.6667 10.6667L16 17.3334L5.33335 10.6667V8.00004L16 14.6667L26.6667 8.00004M26.6667 5.33337H5.33335C3.85335 5.33337 2.66669 6.52004 2.66669 8.00004V24C2.66669 24.7073 2.94764 25.3856 3.44774 25.8857C3.94783 26.3858 4.62611 26.6667 5.33335 26.6667H26.6667C27.3739 26.6667 28.0522 26.3858 28.5523 25.8857C29.0524 25.3856 29.3334 24.7073 29.3334 24V8.00004C29.3334 7.2928 29.0524 6.61452 28.5523 6.11442C28.0522 5.61433 27.3739 5.33337 26.6667 5.33337Z" fill="#272525"/>
</svg>
