<svg width="48" height="48" viewBox="0 0 48 48" fill="none" xmlns="http://www.w3.org/2000/svg">
<path d="M35.1784 34.5421C35.4727 32.0922 35.3846 31.7326 37.2094 32.1297L37.6725 32.1702C39.0757 32.2339 40.9114 31.9444 41.9899 31.4434C44.3115 30.3661 45.6878 28.5679 43.3991 29.0401C38.1776 30.1174 37.8187 28.3493 37.8187 28.3493C43.3324 20.1687 45.6371 9.7838 43.6474 7.24168C38.2211 0.308302 28.8285 3.58693 28.6714 3.67168L28.6211 3.68105C27.5895 3.46693 26.4349 3.33905 25.1377 3.31805C22.7749 3.27905 20.982 3.93755 19.6219 4.9688C19.6219 4.9688 2.86575 -1.93457 3.64537 13.6504C3.81112 16.9658 8.39737 38.7372 13.8679 32.1612C15.8674 29.7567 17.7994 27.7234 17.7994 27.7234C18.7586 28.3606 19.9076 28.6861 21.1121 28.5691L21.2055 28.4896C21.1762 28.7881 21.189 29.0802 21.2426 29.4259C19.8337 31.0006 20.2477 31.2769 17.4304 31.8567C14.5796 32.4439 16.2544 33.4898 17.3475 33.7632C18.6731 34.0947 21.7395 34.5642 23.8117 31.6639L23.7292 31.9947C24.282 32.4372 24.2449 35.1736 24.3229 37.1284C24.4012 39.0837 24.5321 40.9081 24.9307 41.9839C25.3294 43.0598 25.7996 45.8299 29.5024 45.0364C32.5969 44.3749 34.9627 43.4206 35.1784 34.5421Z" fill="black"/>
<path d="M28.2968 46.9711C26.6591 46.9711 25.5926 46.3377 24.945 45.7261C23.9674 44.8036 23.5796 43.6152 23.3479 42.9053L23.2478 42.6091C22.7813 41.3498 22.623 39.5367 22.5293 37.2019C22.515 36.8513 22.5053 36.4902 22.4944 36.1073C22.4865 35.8272 22.4768 35.4758 22.4625 35.1083C21.8725 35.3896 21.2463 35.5875 20.6018 35.6963C19.4471 35.8936 18.2059 35.8298 16.9118 35.5062C15.9986 35.2778 15.0499 34.8046 14.5091 34.0737C12.933 35.4541 11.4296 35.2669 10.6106 34.9936C9.16576 34.5117 7.87276 33.1576 6.65738 30.8547C5.79151 29.2141 4.95413 27.0766 4.16813 24.5011C2.79938 20.0161 1.92976 15.2922 1.85251 13.7412C1.60951 8.8868 2.91638 5.41505 5.73601 3.42343C10.1839 0.281677 16.923 2.1293 19.38 2.96818C21.0308 1.9733 22.9729 1.48918 25.1674 1.52405C26.346 1.54318 27.4684 1.64668 28.5109 1.83268C29.5984 1.49068 31.7464 0.999802 34.2053 1.03055C38.7356 1.08455 42.4898 2.85005 45.0611 6.13618C46.8964 8.48068 45.9889 13.4041 45.285 16.1303C44.2943 19.9651 42.5584 24.0436 40.4261 27.5941C41.0051 27.5982 41.844 27.5288 43.0365 27.2824C45.3893 26.7968 46.0774 28.0583 46.2641 28.6231C47.0123 30.8888 43.7603 32.6011 42.7459 33.0721C41.4461 33.6754 39.327 34.0429 37.5915 33.9634L37.5158 33.9586L37.0598 33.9184L37.0148 34.2987L36.9713 34.6703C36.8546 39.1699 36.2119 42.0196 34.8893 43.9024C33.5029 45.8764 31.5761 46.4296 29.8789 46.7933C29.2999 46.9171 28.7738 46.9711 28.2968 46.9711ZM24.8505 30.5944C25.9076 31.4404 26.0003 33.0323 26.0831 36.0072C26.0936 36.3784 26.1034 36.7298 26.1165 37.0579C26.1563 38.0517 26.2496 40.3786 26.6141 41.3618C26.6655 41.5009 26.7116 41.6419 26.7604 41.7916C27.1665 43.0351 27.3701 43.6587 29.1263 43.2833C30.6004 42.9672 31.3583 42.6837 31.9515 41.8392C32.8136 40.6114 33.2959 38.1417 33.3844 34.4986L35.178 34.5421L33.3968 34.3283L33.4493 33.8836C33.6199 32.4173 33.7429 31.3583 34.7228 30.6578C35.5091 30.0961 36.405 30.1504 37.1186 30.2791C36.3345 29.6866 36.1178 28.9917 36.06 28.7067L35.9104 27.9698L36.3308 27.3462C38.7521 23.7537 40.7486 19.3384 41.8091 15.2322C42.8989 11.0131 42.5666 8.77243 42.2344 8.34868C37.836 2.72855 30.2089 5.04905 29.4124 5.3123L29.2778 5.38505L28.6028 5.51068L28.257 5.43905C27.3038 5.24105 26.2448 5.13155 25.1096 5.11318C23.3261 5.08318 21.8873 5.50468 20.7075 6.3998L19.8889 7.02043L18.939 6.6293C16.9095 5.79943 10.9485 4.13105 7.80301 6.35893C6.05701 7.59568 5.26163 10.0189 5.43863 13.5616C5.49713 14.7312 6.29176 19.1588 7.60276 23.4529C9.41438 29.3873 11.0606 31.3587 11.748 31.5878C11.868 31.6283 12.1793 31.3864 12.489 31.0144C13.7806 29.4662 15.1179 27.9568 16.4993 26.4882L17.538 25.3951L18.7939 26.2294C19.3001 26.5658 19.8585 26.7567 20.4319 26.7927L23.427 24.2382L22.9931 28.6662C22.9834 28.7656 22.9785 28.9009 23.0175 29.1522L23.148 29.9914L22.5818 30.6244L22.5165 30.6979L24.162 31.4573L24.8505 30.5944Z" fill="black"/>
<path d="M43.3991 29.04C38.1773 30.1174 37.8184 28.3493 37.8184 28.3493C43.332 20.1683 45.6367 9.78304 43.6477 7.24166C38.2215 0.308662 28.8281 3.58729 28.6714 3.67241L28.6207 3.68141C27.5891 3.46729 26.4345 3.33979 25.1366 3.31879C22.7737 3.28016 20.9816 3.93829 19.6215 4.96954C19.6215 4.96954 2.865 -1.93346 3.64425 13.6512C3.81 16.9669 8.39625 38.7383 13.8667 32.1623C15.8662 29.7578 17.7979 27.7245 17.7979 27.7245C18.7575 28.3617 19.9061 28.6872 21.1102 28.5702L21.204 28.4907C21.1747 28.7892 21.1883 29.0813 21.2415 29.427C19.8323 31.0017 20.2463 31.278 17.4289 31.8578C14.5781 32.445 16.2529 33.4909 17.3464 33.7643C18.6716 34.0958 21.7384 34.5653 23.8102 31.665L23.7274 31.9958C24.2797 32.4383 24.6675 34.8728 24.6026 37.0797C24.5378 39.2865 24.4939 40.8019 24.9292 41.9854C25.3642 43.1689 25.7977 45.8314 29.5012 45.0379C32.5957 44.3749 34.1992 42.6563 34.4227 39.7898C34.581 37.7517 34.9391 38.0532 34.962 36.231L35.2496 35.3685C35.5811 32.6059 35.3021 31.7149 37.209 32.1293L37.6721 32.1698C39.0754 32.2335 40.9117 31.944 41.9899 31.443C44.3111 30.3664 45.6878 28.5679 43.3991 29.04Z" fill="#336791"/>
<path d="M28.4839 45.8651C25.3969 45.8651 24.4189 43.4205 24.0187 42.4207C23.433 40.9556 23.3066 35.2699 23.4371 30.6071C23.439 30.5285 23.4565 30.451 23.4885 30.3791C23.5205 30.3073 23.5665 30.2425 23.6236 30.1885C23.6808 30.1344 23.7481 30.0923 23.8216 30.0643C23.8952 30.0364 23.9735 30.0234 24.0521 30.0259C24.1306 30.028 24.208 30.0456 24.2797 30.0776C24.3515 30.1097 24.4162 30.1556 24.4702 30.2127C24.5241 30.2697 24.5663 30.3369 24.5943 30.4103C24.6223 30.4837 24.6356 30.5619 24.6334 30.6405C24.483 36.0184 24.6964 40.8918 25.1299 41.9763C25.8064 43.6672 26.8324 45.1462 29.733 44.5249C32.4866 43.9342 33.5179 42.8902 33.9772 40.2274C34.3297 38.184 35.0269 32.3707 35.1127 31.2236C35.1185 31.1452 35.1396 31.0687 35.175 30.9985C35.2104 30.9283 35.2592 30.8658 35.3188 30.8145C35.3784 30.7632 35.4475 30.7242 35.5221 30.6997C35.5968 30.6752 35.6756 30.6656 35.754 30.6716C35.9122 30.6836 36.0591 30.7578 36.1626 30.8781C36.2661 30.9983 36.3177 31.1547 36.306 31.3129C36.2164 32.5072 35.5226 38.3092 35.1566 40.431C34.6144 43.5761 33.2122 45.0026 29.9839 45.6949C29.4352 45.8122 28.9369 45.8647 28.4839 45.8651ZM11.7454 33.9247C11.4755 33.9239 11.2076 33.8795 10.9519 33.7935C8.94674 33.1245 7.03686 29.859 5.27511 24.0866C3.93411 19.6927 3.08436 15.1065 3.00974 13.6158C2.78886 9.19685 3.92661 6.07047 6.39224 4.3241C11.2699 0.8681 19.4752 4.1591 19.8221 4.30085C19.9691 4.36087 20.0861 4.47681 20.1476 4.62316C20.2091 4.76951 20.2099 4.93428 20.1499 5.08122C20.0898 5.22817 19.9739 5.34526 19.8276 5.40672C19.6812 5.46819 19.5164 5.469 19.3695 5.40897C19.2904 5.37672 11.4221 2.22447 7.08149 5.3021C4.97324 6.79685 4.00536 9.5741 4.20449 13.5562C4.26711 14.8121 5.06099 19.2881 6.41924 23.7371C7.99199 28.8903 9.78186 32.142 11.3302 32.6583C11.5732 32.7393 12.3127 32.9857 13.3699 31.7145C14.6026 30.2339 15.8816 28.7924 17.205 27.3922C17.3157 27.2818 17.4653 27.2191 17.6217 27.2175C17.778 27.2159 17.9288 27.2757 18.0417 27.3839C18.1547 27.4921 18.2207 27.6402 18.2258 27.7965C18.2309 27.9528 18.1746 28.1049 18.069 28.2202C18.051 28.239 16.2514 30.1204 14.2901 32.4799C13.3612 33.597 12.471 33.9247 11.7454 33.9247ZM37.7812 28.8829C37.6728 28.8827 37.5664 28.8531 37.4734 28.7971C37.3805 28.7412 37.3045 28.6611 37.2536 28.5653C37.2026 28.4695 37.1787 28.3617 37.1843 28.2533C37.19 28.145 37.2249 28.0402 37.2855 27.9502C42.8591 19.6796 44.8155 9.68622 43.14 7.54497C41.031 4.85022 38.0531 3.44285 34.2885 3.36147C31.5011 3.30147 29.2856 4.01322 28.9234 4.13735L28.8322 4.17447C28.4681 4.28885 28.1887 4.08935 28.0834 3.8561C28.0233 3.72246 28.0142 3.57146 28.0578 3.43157C28.1014 3.29168 28.1946 3.17258 28.32 3.09672C28.3372 3.0866 28.392 3.06335 28.4809 3.03072C29.0962 2.80535 31.3455 2.13035 34.1314 2.16222C38.2969 2.20647 41.7379 3.8126 44.0816 6.80772C45.1905 8.22485 45.1931 11.4896 44.0887 15.7653C42.963 20.1247 40.8446 24.8096 38.2774 28.6192C38.1626 28.7906 37.9736 28.8829 37.7812 28.8829ZM38.0662 32.7116C37.1145 32.7116 36.2614 32.5774 35.7506 32.2714C35.2256 31.9567 35.1255 31.5292 35.1124 31.3024C34.9691 28.7861 36.3574 28.3481 37.0654 28.1482C36.9667 27.999 36.8265 27.8235 36.6814 27.6423C36.2685 27.1263 35.703 26.4199 35.2672 25.3631C35.199 25.1981 34.9852 24.8145 34.7377 24.3701C33.3956 21.9633 30.603 16.9552 32.397 14.3906C33.2272 13.2037 34.8806 12.7365 37.3166 12.9971C36.6 10.8138 33.1875 3.98435 25.0901 3.8516C22.6549 3.8111 20.6576 4.55997 19.1569 6.07535C15.7969 9.46872 15.9184 15.6086 15.9202 15.6701C15.9223 15.7486 15.9089 15.8268 15.8807 15.9002C15.8526 15.9735 15.8103 16.0406 15.7562 16.0976C15.7021 16.1547 15.6373 16.2004 15.5656 16.2324C15.4938 16.2644 15.4164 16.2819 15.3379 16.284C15.2593 16.286 15.1811 16.2726 15.1078 16.2445C15.0344 16.2163 14.9673 16.174 14.9103 16.1199C14.8533 16.0658 14.8075 16.0011 14.7755 15.9293C14.7436 15.8575 14.7261 15.7801 14.724 15.7016C14.7165 15.429 14.5912 8.98572 18.3067 5.2331C20.0456 3.47697 22.3346 2.60997 25.11 2.65535C30.2902 2.74047 33.6247 5.3741 35.5095 7.56822C37.5641 9.9596 38.5714 12.5974 38.6542 13.4779C38.7161 14.1326 38.2462 14.2635 38.1514 14.283L37.9354 14.2878C35.5447 13.905 34.011 14.1708 33.3769 15.0768C32.0122 17.0272 34.6541 21.7646 35.7821 23.7877C36.0701 24.3037 36.2779 24.6768 36.3731 24.9071C36.7436 25.8056 37.227 26.4094 37.6151 26.8946C37.9567 27.3214 38.2526 27.6915 38.3584 28.1257C38.4075 28.212 39.1046 29.2432 43.2412 28.3894C44.2781 28.1756 44.8999 28.3582 45.09 28.9331C45.4639 30.0637 43.3661 31.3826 42.2047 31.9219C41.1641 32.4056 39.5032 32.7116 38.0662 32.7116ZM36.3052 31.2037C36.4365 31.3361 37.0931 31.5645 38.4529 31.506C39.6619 31.4542 40.9369 31.1914 41.7019 30.8362C42.6802 30.3817 43.3335 29.8736 43.6717 29.5267L43.4842 29.5612C40.8394 30.1072 38.9685 30.0345 37.9237 29.3449C37.8535 29.2986 37.7859 29.2483 37.7212 29.1945C37.608 29.2391 37.5034 29.2684 37.4287 29.2894C36.8362 29.4555 36.2235 29.6276 36.3052 31.2037ZM19.2195 34.5469C18.5625 34.5469 17.871 34.4572 17.1649 34.2806C16.4332 34.0976 15.1999 33.5467 15.2186 32.6418C15.24 31.6267 16.7164 31.3222 17.2721 31.2079C19.2799 30.7942 19.4107 30.6285 20.0381 29.8316C20.2211 29.5995 20.4487 29.3104 20.7592 28.9639C21.2201 28.4478 21.7237 28.1865 22.2562 28.1865C22.6271 28.1865 22.9312 28.3121 23.1322 28.3957C23.7727 28.6612 24.3071 29.3032 24.5269 30.0709C24.7252 30.7635 24.6304 31.4302 24.2606 31.9481C23.0467 33.648 21.3034 34.5469 19.2195 34.5469ZM16.5112 32.6932C16.6916 32.8327 17.0531 33.0191 17.4555 33.1196C18.0671 33.2726 18.6604 33.3502 19.2199 33.3502C20.9246 33.3502 22.2934 32.6445 23.2875 31.2525C23.4949 30.9622 23.4326 30.5936 23.3771 30.3997C23.2609 29.9936 22.9721 29.6242 22.6747 29.5009C22.5135 29.4341 22.3796 29.3831 22.2566 29.3831C22.1906 29.3831 21.9896 29.3831 21.6514 29.7615C21.4179 30.024 21.1935 30.2944 20.9786 30.5722C20.1971 31.5645 19.839 31.9012 17.514 32.3801C16.9466 32.4964 16.6556 32.6149 16.5112 32.6932ZM21.1121 29.9332C20.9693 29.933 20.8312 29.8817 20.7229 29.7886C20.6146 29.6955 20.5431 29.5667 20.5215 29.4255C20.5065 29.3262 20.4965 29.2262 20.4915 29.1259C18.9675 29.0974 17.4971 28.4433 16.3807 27.2786C14.9692 25.806 14.3269 23.7656 14.6186 21.681C14.9355 19.4171 14.817 17.4187 14.7532 16.3451C14.7356 16.0466 14.7229 15.831 14.7236 15.6817C14.7247 15.4923 14.7285 14.9902 16.407 14.1394C17.004 13.8367 18.201 13.3087 19.5086 13.1734C21.675 12.9495 23.103 13.9143 23.5305 15.8906C24.6844 21.2261 23.622 23.586 22.8461 25.3095C22.7017 25.6305 22.5652 25.9335 22.4561 26.2271L22.3597 26.4858C21.9499 27.585 21.5955 28.5345 21.7042 29.2436C21.7162 29.3213 21.7127 29.4005 21.694 29.4768C21.6753 29.5532 21.6417 29.625 21.5953 29.6884C21.5488 29.7517 21.4902 29.8053 21.423 29.846C21.3558 29.8867 21.2813 29.9138 21.2036 29.9257L21.1121 29.9332ZM15.924 15.8475L15.9472 16.2746C16.0132 17.3898 16.1362 19.4651 15.8032 21.8471C15.5629 23.5665 16.0879 25.2446 17.2444 26.4506C18.1582 27.4039 19.3609 27.93 20.5969 27.93H20.6224C20.7607 27.3469 20.9906 26.7311 21.2381 26.0677L21.3337 25.8105C21.4571 25.479 21.6015 25.158 21.7545 24.8182C22.5011 23.1592 23.4307 21.0941 22.3601 16.1437C22.1482 15.1631 21.6341 14.5957 20.7892 14.4086C19.0537 14.0253 16.4674 15.3307 15.924 15.8475ZM19.5352 15.5936C19.5052 15.8051 19.9226 16.3698 20.4671 16.4452C21.0105 16.5213 21.4755 16.0796 21.5051 15.8681C21.5347 15.6566 21.1177 15.4233 20.5732 15.3476C20.0287 15.2718 19.5641 15.3821 19.5352 15.5936ZM20.592 16.6533L20.4394 16.6428C20.1019 16.596 19.7606 16.3833 19.527 16.0736C19.4449 15.9648 19.311 15.7541 19.3376 15.5658C19.3755 15.2898 19.7122 15.1245 20.2376 15.1245C20.355 15.1245 20.4772 15.1331 20.6002 15.1503C20.8875 15.1901 21.1541 15.273 21.351 15.3828C21.6922 15.5733 21.7174 15.786 21.702 15.8958C21.66 16.2007 21.1751 16.6533 20.592 16.6533ZM19.7336 15.6288C19.7505 15.7593 20.0737 16.1898 20.4945 16.248L20.5924 16.2547C20.9809 16.2547 21.2711 15.9491 21.3052 15.849C21.2692 15.7807 21.0195 15.6112 20.5459 15.5452C20.4439 15.5308 20.341 15.5234 20.238 15.5231C19.9335 15.5231 19.7719 15.5917 19.7336 15.6288ZM36.0855 15.162C36.1151 15.3735 35.6981 15.9382 35.154 16.014C34.6102 16.0897 34.1449 15.6483 34.1149 15.4368C34.0864 15.2253 34.5034 14.9917 35.0471 14.9163C35.5909 14.8402 36.0555 14.9508 36.0855 15.162ZM35.0284 16.122C34.5049 16.122 34.053 15.7147 34.0159 15.4503C33.9727 15.1331 34.4951 14.892 35.0329 14.8173C35.1514 14.8008 35.2687 14.7926 35.3816 14.7926C35.8459 14.7926 36.1534 14.9287 36.1841 15.1485C36.204 15.2906 36.0949 15.51 35.907 15.708C35.7829 15.8381 35.5222 16.0635 35.1671 16.1126L35.0284 16.122ZM35.382 14.9921C35.278 14.9921 35.171 14.9997 35.061 15.015C34.5206 15.0903 34.1981 15.3071 34.2139 15.4233C34.2319 15.5512 34.5769 15.9228 35.0287 15.9228L35.1401 15.915C35.4352 15.8741 35.6569 15.6813 35.7626 15.5703C35.9287 15.396 35.9947 15.2317 35.9869 15.1758C35.9764 15.1016 35.7769 14.9921 35.382 14.9921ZM36.8689 27.3082C36.7605 27.3083 36.6541 27.2789 36.5611 27.2231C36.4681 27.1674 36.3921 27.0874 36.3411 26.9917C36.2901 26.8961 36.266 26.7883 36.2715 26.6801C36.277 26.5718 36.3119 26.4671 36.3724 26.3771C37.6466 24.474 37.4134 22.5333 37.188 20.6565C37.0916 19.857 36.9926 19.0301 37.0181 18.2366C37.0444 17.4202 37.1482 16.7467 37.2484 16.0953C37.3672 15.3236 37.4797 14.5946 37.4332 13.7291C37.429 13.6507 37.4403 13.5721 37.4664 13.498C37.4925 13.4239 37.5329 13.3557 37.5854 13.2972C37.6379 13.2388 37.7013 13.1912 37.7722 13.1573C37.8431 13.1234 37.9199 13.1037 37.9984 13.0995C38.0768 13.0952 38.1553 13.1065 38.2294 13.1326C38.3035 13.1587 38.3717 13.1992 38.4302 13.2516C38.5483 13.3576 38.6194 13.5062 38.628 13.6646C38.6812 14.6538 38.5541 15.4788 38.4311 16.2772C38.3362 16.8933 38.238 17.5305 38.2144 18.2748C38.1915 18.9776 38.2811 19.7238 38.376 20.5136C38.616 22.5093 38.8879 24.7713 37.3669 27.0427C37.312 27.1244 37.2379 27.1914 37.151 27.2377C37.0642 27.284 36.9673 27.3082 36.8689 27.3082Z" fill="white"/>
</svg>
